<svg xmlns="http://www.w3.org/2000/svg" width="546.354" height="307.541" viewBox="0 0 546.354 307.541">
  <path id="Path_1" data-name="Path 1" d="M788.858,360.319c-.741-.773-1.628-.251-.648,0,.288.574.564,1.149,1.285,1.285,10.265,20.383,17.449,42.146,17.324,68.649-.293,61.386-49.79,82.089-100.729,93.032C632.821,539.023,544.355,533.4,466.778,522c-23.935-3.519-51.628-8.02-76.993-15.4-49.4-14.358-99.79-31.266-103.935-89.18-1.17-16.3,3.133-32.221,9.617-42.344,16.771-26.149,49.863-45.113,80.847-57.743,51.753-21.1,108.331-30.72,169.378-32.079,47.546-1.06,116.008,6.062,164.246,25.662-62.389-42.632-141.815-67.407-233.542-79.557-42.507-5.631,66.651-9.873,104.839,0,75.276,19.463,148.712,50.479,190.936,105.862,15.863,9.148,34.722,18.7,46.836,32.721,7.79,9.017,14.144,22.227,12.834,37.212C827.005,384.514,807.034,371.722,788.858,360.319ZM550.826,306.424c-72.947,2.921-161.573,18.285-216.219,55.816-14.264,9.8-42.11,29.965-42.345,51.973-.235,22.242,24.034,38.69,42.987,47.477,21.522,9.978,46.172,16.087,68.655,21.172,43.729,9.895,94.15,16.045,141.789,19.245,24.331,1.64,55.273,1.216,76.994.648,47.775-1.264,98.457-5.075,136.014-25.026,17.957-9.539,40.559-28.351,41.061-50.046.2-8.469-3.713-19.131-7.06-26.941-11.006-25.726-26.833-40.643-43.629-59.669C688.37,315.758,611.252,304.007,550.826,306.424Z" transform="translate(-285.658 -225.439)" fill-rule="evenodd"/>
</svg>
