<svg height="192" viewBox="0 0 256 256" width="192" xmlns="http://www.w3.org/2000/svg"><path d="m0 0h256v256h-256z" fill="none"/><path d="m63.99986 216a8 8 0 0 1 -8-8.00009l.00053-42.69468a28 28 0 1 1 0-50.61044l-.00051-42.69469a8 8 0 0 1 8.00012-8.0001l46.69456.00053a27.99993 27.99993 0 1 1 50.61031 0l46.69452-.00053a8 8 0 0 1 8.00007 7.9999l.00054 42.69488a28 28 0 1 0 0 50.61044l-.00053 42.69487a8 8 0 0 1 -8 7.9999z" opacity=".2"/><path d="m63.99986 216a8 8 0 0 1 -8-8.00009l.00053-42.69468a28 28 0 1 1 0-50.61044l-.00051-42.69469a8 8 0 0 1 8.00012-8.0001l46.69456.00053a27.99993 27.99993 0 1 1 50.61031 0l46.69452-.00053a8 8 0 0 1 8.00007 7.9999l.00054 42.69488a28 28 0 1 0 0 50.61044l-.00053 42.69487a8 8 0 0 1 -8 7.9999z" fill="none" stroke="#333" stroke-linecap="round" stroke-linejoin="round" stroke-width="12"/></svg>