<svg height="192" viewBox="0 0 256 256" width="192" xmlns="http://www.w3.org/2000/svg"><path d="m0 0h256v256h-256z" fill="none"/><circle cx="104" cy="144" fill="none" r="32" stroke="#000" stroke-linecap="round" stroke-linejoin="round" stroke-width="12"/><path d="m72 144a32 32 0 1 1 32 32h88v-96h-128v64z" opacity=".2"/><g fill="none" stroke="#000" stroke-linecap="round" stroke-linejoin="round" stroke-width="12"><path d="m53.38964 207.99876a56.02294 56.02294 0 0 1 101.22072 0l61.38948.00124a8 8 0 0 0 8.00016-8v-144a8 8 0 0 0 -8-8h-176a8 8 0 0 0 -8 8v144.00074a7.99926 7.99926 0 0 0 8 7.99926z"/><path d="m176 176h16v-96h-128v16"/></g></svg>