<svg height="1652.792" viewBox="0 0 1654.203 1652.792" width="1654.203" xmlns="http://www.w3.org/2000/svg"><path d="m803.117 0c358.883-158.251 803.117 359.568 803.117 803.117s-359.568 803.117-803.117 803.117-639.267-463.512-803.117-803.117 444.235-644.866 803.117-803.117z" fill="#ff6049" opacity=".07" transform="translate(27.454 46.557)"/><g opacity=".2" transform="translate(144.466 1484.519)"><ellipse cx="681.504" cy="28.28" fill="#333" rx="679.556" ry="26.364"/><path d="m1110.874 2547.265c-181.538 0-352.214-2.743-480.594-7.722-200.911-7.8-200.911-16.765-200.911-20.59s0-12.817 200.911-20.59c128.38-4.979 299.056-7.722 480.594-7.722s352.214 2.743 480.594 7.722c200.911 7.8 200.911 16.765 200.911 20.59s0 12.817-200.911 20.59c-128.38 4.947-299.056 7.722-480.594 7.722zm-677.326-28.345c14.272 11.868 286.969 24.41 677.32 24.41s663.055-12.548 677.327-24.41c-14.272-11.868-286.97-24.41-677.326-24.41s-663.043 12.542-677.321 24.41z" fill="#fff4e0" transform="translate(-429.37 -2490.64)"/></g><path d="m690.177 2354.6a23.429 23.429 0 0 0 -31 11.682l-33.747 74.787a23.429 23.429 0 0 0 11.715 31 23.43 23.43 0 0 0 31-11.715l33.747-74.754a23.43 23.43 0 0 0 -11.715-31z" fill="#666" transform="translate(-354.574 -956.511)"/><path d="m2283.708 2354.6a23.429 23.429 0 0 1 31 11.715l33.747 74.755a23.422 23.422 0 0 1 -11.715 31 23.429 23.429 0 0 1 -31-11.714l-33.747-74.754a23.429 23.429 0 0 1 11.714-31z" fill="#666" transform="translate(-945.948 -956.514)"/><path d="m0 0h510.398v15.562h-510.398z" fill="#b3b3b3" transform="matrix(.522 -.853 .853 .522 1059.498 462.799)"/><path d="m0 0h366.408v23.436h-366.408z" fill="#999" transform="matrix(.52220091 -.8528225 .8528225 .52220091 1059.651 458.633)"/><circle cx="1335.249" cy="31.248" fill="#999" r="31.248"/><path d="m0 0h15.617v376.591h-15.617z" fill="#b3b3b3" transform="matrix(.77361907 -.63365096 .63365096 .77361907 827.925 164.345)"/><path d="m0 0h23.436v254.761h-23.436z" fill="#999" transform="matrix(.77361907 -.63365096 .63365096 .77361907 917.295 279.614)"/><circle cx="31.248" cy="31.248" fill="#999" r="31.248" transform="matrix(.99067664 -.13623431 .13623431 .99067664 801.133 135.686)"/><circle cx="1093.157" cy="464.778" fill="#666" r="97.639"/><circle cx="1097.059" cy="460.875" fill="#808080" r="79.413"/><path d="m1990.107 858.387a5.857 5.857 0 0 1 -5.857-5.857 52.344 52.344 0 0 0 -33.324-48.557 5.858 5.858 0 0 1 4.21-10.933 64.129 64.129 0 0 1 40.834 59.489 5.857 5.857 0 0 1 -5.864 5.857z" fill="#999" transform="translate(-830.034 -396.275)"/><path d="m1864.538 810.884a5.857 5.857 0 0 1 -3.64-10.446 63.193 63.193 0 0 1 36.765-13.7 5.86 5.86 0 1 1 .506 11.708 51.567 51.567 0 0 0 -29.991 11.176 5.826 5.826 0 0 1 -3.64 1.262z" fill="#999" transform="translate(-798.252 -394.15)"/><path d="m696.444 2354.6a23.429 23.429 0 0 0 -31 11.682l-24.644 54.594q4.287.231 8.626.237h42.687l16.021-35.548a23.43 23.43 0 0 0 -11.689-30.966z" fill="#4d4d4d" transform="translate(-360.841 -956.511)"/><path d="m2283.708 2354.6a23.428 23.428 0 0 0 -11.715 31l16.021 35.478a159.688 159.688 0 0 0 47.749-8.139l-21.058-46.654a23.429 23.429 0 0 0 -31-11.683z" fill="#4d4d4d" transform="translate(-945.948 -956.511)"/><rect fill="#e43b00" height="984.232" rx="249.88" width="1370.891" x="128.451" y="460.875"/><path d="m1775.278 1322.921v-269.487a160.138 160.138 0 0 0 -160.134-160.134h-1050.63a160.138 160.138 0 0 0 -160.134 160.134v269.487z" fill="#f9a672" opacity=".779" transform="translate(-275.929 -432.425)"/><rect fill="#ff6100" height="916.534" rx="249.88" width="1370.891" x="128.766" y="494.724"/><g fill="#f4c0a6"><path d="m2406.313 1011.051a5.851 5.851 0 0 1 -4.639-2.281 153.328 153.328 0 0 0 -122.189-60.085h-19.527a5.857 5.857 0 1 1 0-11.715h19.527a164.95 164.95 0 0 1 131.462 64.642 5.857 5.857 0 0 1 -4.634 9.44z" transform="translate(-940.269 -448.109)"/><path d="m1627.4 948.695h-976.423a5.857 5.857 0 0 1 0-11.715h976.423a5.857 5.857 0 1 1 0 11.715z" transform="translate(-362.392 -448.113)"/></g></svg>