<svg height="21.41" viewBox="0 0 293.42 21.41" width="293.42" xmlns="http://www.w3.org/2000/svg"><path d="m351 143.75c-9.13 0-16.25-4.27-23.13-8.4s-13.33-8-21.73-8-14.87 3.89-21.73 8-14 8.4-23.13 8.4-16.25-4.27-23.13-8.4-13.33-8-21.73-8-14.87 3.89-21.73 8-14 8.4-23.13 8.4-16.25-4.27-23.13-8.4-13.33-8-21.73-8-14.87 3.89-21.73 8-14 8.4-23.13 8.4a31.49 31.49 0 0 1 -12.13-2.54l1-4.8a28.89 28.89 0 0 0 11.13 2.33c8.39 0 14.87-3.89 21.73-8s14-8.4 23.13-8.4 16.25 4.27 23.13 8.4 13.33 8 21.73 8 14.87-3.89 21.73-8 14-8.4 23.13-8.4 16.25 4.27 23.13 8.4 13.33 8 21.73 8 14.87-3.89 21.73-8 14-8.4 23.13-8.4 16.25 4.27 23.13 8.4 13.33 8 21.73 8a28.9 28.9 0 0 0 11.13-2.33l1 4.8a31.49 31.49 0 0 1 -12.13 2.54z" fill="#444" transform="translate(-69.71 -122.34)"/></svg>