<svg height="10.311" viewBox="0 0 260.026 10.311" width="260.026" xmlns="http://www.w3.org/2000/svg"><g fill="#193532" transform="translate(.026 -3.389)"><path d="m206.8 7.3-.1.3c.1-.2.2-.3.1-.3zm27.9 2.7h-.1c-.2.4-.1.3.1 0zm-179.9-5.8-.6-.4c.2.4.4.5.6.4zm-20.3 5.4.1.3c0-.2 0-.3-.1-.3zm-12.1 1.2a3.4 3.4 0 0 0 -1-.1 3.083 3.083 0 0 0 1 .1zm-4.9-5.8c-.1.1-.2.1-.4.2.2-.1.3-.2.4-.2zm35.2 4.8.5.9a4.053 4.053 0 0 0 -.5-.9zm-33.2 1.8c-.2-.2-.4-.2-.6-.3 0 .2.3.3.6.3zm101.4-.2c-.1.1-.2.2-.2.3.3-.1.3-.2.2-.3zm-40-1h-.1a.349.349 0 0 0 .2.1zm11.7 0-.2.2c.2-.1.2-.1.2-.2zm-20.5.9c-.1.1-.3.2-.4.3z"/><path d="m260 6c-1-.6-4.7-1.2-5.8.3-.2-.1.1-.3.2-.4a14.3 14.3 0 0 1 -3.6 0 19.65 19.65 0 0 0 -4.2 0c-1 1.5-3.9-.6-4.8 1.4l.5-.4c.9.5-1.2 1.4-1.5 1.9-.8-1.2-.1-1-1-2l1.1.4-.3-1c-3.1 2.8-6.2-.9-8.2 1.1.1-.1.1-.3.2-.4-1.4-.5-2.3.8-3.3 1.2-.1-.5.6-.9 1.1-1.3-2.4-.3-6.4 1.2-9 .4-.9.7.4.9-.6 1.5-.8-.2-1.4-.7-.4-1.1-2.3-1.2-7.6 1-11.1-.2-1.8.8-.7 1.1-3.5 1.6.7-.5-.7-1.7 1-1.7l.2-.5c-2.8-.1-6.6-.3-8.1 1.2-.1-1.1-.5-.2-1.6-.8-.4.1 0 .2.2.2-1 .9-1.6-.1-2.3.1l.3-.2-2 .7c-.3-.2-.8-.4-.9-.7v.8c-1.1 0-.5-1-1.9-.8l.3.6c-.9-.4-2.2.4-2.4-.5 0-.2.1-.1.4-.1-1.3-1.2-3.5.3-5.1-.3l.4 1.3c-1.6.4-1-.3-.9-.7-1.1 0-1.3-.4-2.7-.6-.7.3-.4.5-.6.8l-1.5-.4 1-.7c-2.3 1.8-5.6-.4-7.2 1.2-.8-.4.8-.7.3-1-2.6-.9-6 1-8.2 0-3.6-1-7.8-.4-11.8-1.1l.1.3-2.9-.4c-.8.7-2.7.3-4 1.1.1-.3-.1-.7.2-.9-1.2.1-2.6.4-3.3-.1l.4-.3c-2.7-.3-6.4-.5-7.9.1-.9 0-.9-.6-1.1-1a8.242 8.242 0 0 0 -3.9.7 5.3 5.3 0 0 1 -1-.6l-.6.8c-.6-.1-.1-.7-.6-.9-2.5.9-5.3-.1-7-.1l.2.4c-.7.3-2.1-.3-1.2-.7-3.4-.6-5.1 1.2-9.6.8-.6-1.5-4.1.3-4.8-1.4-1.9.4-3.2-.3-4.5.6 0-.2-.2-.2.1-.3-.8-.6-3.3-.2-5.3.2l-.1-.5c-.9 1.2-4.2.9-4.9 2-.2-.2.4-.5.7-.7-1-1.1-1.8.5-3.1.2.1-.3-.3-.6 0-.8-4.4-1.2-10.6.7-16.3-.1-1.6 0 .6 1.2-1.5 1.1-.6-.6 1-1.1-.3-1.4-.9.7-1.3.5-2.6.5.2-.4 0-.6.9-.9-.7-.5-3.1.9-4.5 0 .1.3-.2.5-.5.7-2.1 1-4.9-.9-5.1-.4 0 0-.7.2-.1.3-.8 0-1.9-.2-1.7-.7-.4.3-.8.8-1.4.8l.3-.6c-.4.1-.8.5-1.1.6l.6.4c-.9-.5-2.6.8-2.6-.4h.3l-1.7-.5a3.328 3.328 0 0 1 -2.5.9c-.5-1.3-2.9-.2-4.3-.3l.1-.4c-1.1.6-4 .4-3.5.6-1.1 0-2.6-.2-2-.6-.8.1-2.7.1-3.2.9l-1.8-1c-1 1.6-3.6-.5-3.6 1.2-1-.2-.8-.6-1.5-.9a6.307 6.307 0 0 1 -4.2.7v-.2c-1.4-.1-3.1.8-5.1 1l-.5-1.2c-1 .2-1.3 1.2-2.3 1-.2-.2 0-.3.2-.3a5.366 5.366 0 0 1 -3.1-.2c-1.5 1-2.7.7-3.9 1.8-1.3-1 1.7-.6.6-1.6-2.2-.4-4.4.4-6.7 1.1-.2-.2 0-.4.1-.7 0 0-1.2.9-2.2 1.8-1 1-1.9 2.1-1.4 2.7-.5.9-1.2 1.4.9 2 .6-.5 2.5-1.3 2.9-.4l.1-.9c2.6-.6.4 1.8 3.6 1.6l-.7-.3c.6-.1 1.1-.7 1.8-.5.2.2-.2.4-.5.6.9-.5 1.7-.9 2.6-1.4a1 1 0 0 1 -.4 1.2c2.5-.2-.6-1.6 2.4-1.4.6.4-.2.6-.5.9 1.4.7 2.3-.1 3.8-.6.1.8-.9.7.3 1.2-.3-.4-.5-1.1.5-1.2-.4.8.7.4 1.6.5a.54.54 0 0 1 .2-.8 7.6 7.6 0 0 1 1.4.1l-1.1-.7c1.5-.8 2.4.3 3.6.6a.85.85 0 0 1 -.5.3c1.2.3 2.5.9 4.1.1l-.3.1c2.9-.9-1-1.3 2.4-2.2 1.1.1-.4 2.6 2.1 1.6-1.3-.6 1.6-1.7 3.1-2l-1.5 1.6c.6 0 1.6-.5 2-.3l-.1-.3c-.2-1.3 1.9.1 3-.7-1.3 1.8-1.4 1.5-1.6 3.2a5.121 5.121 0 0 1 4.1-1.8l-1.5 1.4c2.5.2 5.5-1.9 7.6-3-.5 1 .3 1.4-.6 2.2l2.4-.3-.7 1.1c1-1.2 2.1-.4 1.9-1.9-.3.2-.2.4-.7.3a1.59 1.59 0 0 1 1.7-1.3c.9.3-.5.6-.2 1 .8-.6.9.3 1.7-.1l-.8-.6c.6-.9 1.4-.1 2.2-.5-1 .4-.7.9-.3 1.4l-.1-.1c.8-.1 1.6-.7 2-.2l-.5 1.2.9-.9c.3.1.6.6 0 .8 2.8.7-.1-2.5 3.6-1.5 0 .5-.4.8-1.4.5-.2.7.1 1.1 1.1 1.4v.1c1.9 0 4.4 0 5.6-.8.4.3 0 .6-.4.9 2.1.4 2.8-.7 5 .1l-1-.4c1.4-.6 4-.8 5.3.1l-.4.3c1.3-.7 3.5.6 4 0-.6-.4 0-.6-.8-1l3.4-.7.2 1.2 1.8-.4c-.4-.5 2.4.4 2.5-.7 1 .4-.4.9-.8 1.4 1-.3 1.1.2 2.1-.5l1 1.1 2.6-.7c-.1.1 0 .2-.1.3 1.2-.9 3.1.6 4.6-.9-.1.1-.1.1-.1.2.9-.8 2.9-.2 3.7 0 1.4-.2.6-1 .6-1.4 3.9.4 2.7.3 6-.9 2 1.4-2.4 2.1.1 3 .4-.6 2.1-1.1 4.1-1.3 1.8.5 4.8.9 6.5 1.9l-.2-.9 2.6-.4-1.5 1.2a22.655 22.655 0 0 1 2.6-1.2c2.7-.7 1.4 1.9 3.5.7.1.1.1.2.2.3.7-.6 2.4-.3 4.4-.5l-.7 1.1-1.3-.3c.7 1.1 2.1-.1 3.4 0 1.3-.3.7-1.3 1.4-1.6.5.1 1.2-.2 1.6.1 1.1.4.1 1.3-.3 1.8 1-1.1 1.4-.9 3.6-1.3.1.5-.1.8-.4.9a1.644 1.644 0 0 0 1.2-.8l.7.7c2.5 1 2.6-2 5.6-1.5-.8.6 2.6 0 3.5.7-1.1.1.4 1.6-.2 2.3 2.4.5 1-1.3 3-1.4l-.9 1.3c1.9-.5.5-.7 2.4-1.1-.5.4.8.4-.3.8 2.5.2 1.9.1 4.1.3l.2-1.3c.7-.1 1 .5 1.2.7-.3 0-.8-.1-.7.1.8 1.2 1.4-.6 2.4.5-.2-.4-.5-1 .4-1.1-.3.8 1.4.8 1.4 1.2-.6-.6 2-.2 2.1-1 1 .7-.4.6-.4 1.1.9-1 3.7 0 4.6-.6 0 .1.1.1.1.2 1.2-.6 3-.7 5.3-1.5l-.8.7c2.2.4 1.4-1.5 3.3-1.5-.4 1.1 3.1 0 2.2 1.2 1.1-.6 2.3-.8 3.1-1.7 1 .6-2.1 1.4-.6 1.8l1.6-.5.3.6c.1-.4 1.5-.4 1.4-.8.2.7.9 1.2.8 1.8 1-.2 2.4.5 3.3-.1l.1.3c1-1.3 3.1-.2 3.6-1.5l.6.7c1.5-.1 1.3-1.5 2-1.8a6.7 6.7 0 0 1 2 0c-2 .8 1 1.1 1.4 1.6.8 0 3.1 0 3.7-.7-1 .7-.4 1.2-2.1 1.3.9 1.3 2.6-.2 4.5-.1v.6c2.7-.4 2.8-1.5 4-2.5.3.8.1 1-.7 1.7 1.8.5 4.7-.1 6.7 0 .6.5.2.9-.5 1.1 2.1-.6 4.7.1 6-1.2-.5.5.9.3 1.6.6 0-.3.1-.6.2-.6a10.628 10.628 0 0 1 5.6-.7l-.5.4a11.34 11.34 0 0 0 4.3-.9 8.1 8.1 0 0 1 4.5-.4c.7.3-.7 1.1.7 1 .7-.5.4-1.5 2.2-1.3l-.1.9 1.2-.9c-.7-.7-2.6-.4-1.3-1.2 1.6.8 1.3-.9 3.3 0-.4.1-1 .8-1.3 1.2a12.558 12.558 0 0 0 4.8-.1 11.036 11.036 0 0 1 4.9-.2c2-.8 4.6-1.2 5.9-1.9a2.748 2.748 0 0 1 -.8 2.4c1.8 0 2.4-2.1 3.7-.9.7-1.3 4.7-1.2 5-3l2-.8z"/><path d="m58.1 11.1a6.871 6.871 0 0 0 -2.3.2c.2.2 2.3.6 2.3-.2zm150.1 2.2c-.1 0-.3.1-.4.1a.6.6 0 0 0 .4-.1zm8.1-.4a1.381 1.381 0 0 0 -.4-.3c0 .3.1.5.4.3zm-37.8.8c.7-.4 1-.7 1-1-.4.1-.7.3-1 1zm-15.5-1.1c-.1.1-.2.1-.3.2.3-.1.3-.2.3-.2zm-32.8-.6a9.3 9.3 0 0 1 2.4-.5c-.7.2-1.9-.3-2.4.5zm95.9-.6-.7.6.8-.4zm-7.5.6c-.3-.1-1.7.3-1.3.6a3.79 3.79 0 0 1 1.3-.6zm-29-.6-.3.6.7-.5z"/></g></svg>