<svg xmlns="http://www.w3.org/2000/svg" width="85.165" height="25.59" viewBox="0 0 85.165 25.59">
  <g id="amazon" transform="translate(0 -0.26)">
    <path id="Path_1" data-name="Path 1" d="M52.83,20.27c-4.95,3.64-12.12,5.58-18.3,5.58a33.212,33.212,0,0,1-22.35-8.5c-.46-.42-.05-1,.5-.67A45.051,45.051,0,0,0,35.05,22.6a44.786,44.786,0,0,0,17.06-3.48c.84-.36,1.54.55.73,1.15m2.04-2.34c-.63-.8-4.18-.4-5.77-.2-.48.06-.55-.36-.12-.66,2.84-2,7.48-1.4,8.02-.75.54.67-.15,5.3-2.8,7.52-.4.34-.8.16-.62-.3.6-1.48,1.94-4.8,1.3-5.6M49.22,3.06V1.13a.483.483,0,0,1,.5-.5h8.65a.483.483,0,0,1,.5.5V2.78c0,.28-.24.64-.65,1.22l-4.5,6.38a9.5,9.5,0,0,1,4.95,1.06.874.874,0,0,1,.46.75v2.05a.466.466,0,0,1-.64.44,10,10,0,0,0-9.16,0c-.3.17-.6-.16-.6-.44V12.3a2.423,2.423,0,0,1,.3-1.32l5.2-7.44H49.71a.479.479,0,0,1-.5-.48M17.62,15.1H15a.517.517,0,0,1-.5-.45l.02-13.48a.5.5,0,0,1,.5-.5h2.46a.514.514,0,0,1,.48.46V2.9H18A3.521,3.521,0,0,1,21.5.4a3.454,3.454,0,0,1,3.4,2.5,3.917,3.917,0,0,1,6.71-1.03c.82,1.14.65,2.78.65,4.23v8.5a.5.5,0,0,1-.5.5H29.1a.494.494,0,0,1-.46-.5V7.47a17.455,17.455,0,0,0-.08-2.52,1.393,1.393,0,0,0-1.55-1.17,1.738,1.738,0,0,0-1.56,1.1,8.277,8.277,0,0,0-.25,2.6v7.14a.512.512,0,0,1-.52.5H22.05a.5.5,0,0,1-.47-.5V7.47c0-1.5.24-3.72-1.63-3.72-1.9,0-1.82,2.16-1.82,3.72v7.15a.5.5,0,0,1-.5.5M66.35,3.15c-1.94,0-2.06,2.64-2.06,4.28s-.04,5.17,2.03,5.17c2.04,0,2.14-2.84,2.14-4.57a12.268,12.268,0,0,0-.4-3.58,1.649,1.649,0,0,0-1.72-1.3M66.33.4c3.9,0,6.03,3.34,6.03,7.6,0,4.1-2.34,7.38-6.03,7.38-3.84,0-5.93-3.35-5.93-7.52C60.4,3.66,62.52.4,66.33.4" fill="#193532" fill-rule="evenodd"/>
    <path id="Path_2" data-name="Path 2" d="M3.23,14.96H.6a.47.47,0,0,1-.46-.48V.98A.471.471,0,0,1,.64.55H3.08a.492.492,0,0,1,.47.38V3H3.6C4.34,1.13,5.37.25,7.2.25a3.46,3.46,0,0,1,3.07,1.6c.7,1.07.7,2.9.7,4.2v8.48a.519.519,0,0,1-.52.42H7.8a.482.482,0,0,1-.46-.42V7.22c0-1.48.17-3.64-1.65-3.64A1.72,1.72,0,0,0,4.16,4.66a6,6,0,0,0-.42,2.56v7.26a.5.5,0,0,1-.52.48" transform="translate(74.195 0.13)" fill="#193532" fill-rule="evenodd"/>
    <path id="Path_3" data-name="Path 3" d="M10.67,14.93a.544.544,0,0,1-.63.06,6.4,6.4,0,0,1-1.5-1.76,5.236,5.236,0,0,1-4.35,1.9,3.739,3.739,0,0,1-3.96-4.1,4.463,4.463,0,0,1,2.8-4.28A17.861,17.861,0,0,1,8,5.85V5.5a3.42,3.42,0,0,0-.3-1.9,1.811,1.811,0,0,0-1.5-.68A1.965,1.965,0,0,0,4.1,4.5a.573.573,0,0,1-.47.48L1.08,4.7a.447.447,0,0,1-.4-.54C1.3,1.06,4.1.13,6.6.13a6.079,6.079,0,0,1,3.97,1.3c1.28,1.2,1.16,2.8,1.16,4.53v4.1a3.576,3.576,0,0,0,1,2.43.51.51,0,0,1,0,.7c-.55.44-1.5,1.27-2.03,1.74ZM8,8.53a5.187,5.187,0,0,1-.48,2.78,2.147,2.147,0,0,1-1.83,1.2c-1.02,0-1.6-.76-1.6-1.9,0-2.24,2-2.65,3.9-2.65Z" transform="translate(34.305 0.13)" fill="#193532" fill-rule="evenodd"/>
    <path id="Path_4" data-name="Path 4" d="M10.42,14.93a.527.527,0,0,1-.62.06,6.228,6.228,0,0,1-1.5-1.76,5.255,5.255,0,0,1-4.36,1.9A3.739,3.739,0,0,1,0,11.03,4.463,4.463,0,0,1,2.8,6.75a17.861,17.861,0,0,1,4.97-.9V5.5a3.343,3.343,0,0,0-.32-1.9,1.786,1.786,0,0,0-1.48-.68A2,2,0,0,0,3.85,4.5a.552.552,0,0,1-.46.48L.83,4.7a.447.447,0,0,1-.4-.54c.6-3.1,3.4-4.03,5.9-4.03a6.1,6.1,0,0,1,3.97,1.3c1.3,1.2,1.16,2.8,1.16,4.53v4.1a3.576,3.576,0,0,0,1,2.43.51.51,0,0,1,0,.7c-.55.44-1.5,1.27-2.03,1.74ZM7.77,8.53a5.105,5.105,0,0,1-.5,2.78,2.121,2.121,0,0,1-1.82,1.2c-1,0-1.6-.76-1.6-1.9,0-2.24,2-2.65,3.92-2.65Z" transform="translate(0 0.13)" fill="#193532" fill-rule="evenodd"/>
  </g>
</svg>
