<svg xmlns="http://www.w3.org/2000/svg" xmlns:xlink="http://www.w3.org/1999/xlink" width="413.983" height="451.831" viewBox="0 0 109.533 119.547" xmlns:v="https://vecta.io/nano"><rect width="109.533" height="119.547" ry="6.42" opacity=".997" fill="#242458" fill-rule="evenodd"/><g fill="#fff114"><path d="M54.767 6.541c-3.191.053-7.448.977-10.127 2.761-3.495 2.33-5.939 5.921-6.943 10.201l-.494 2.108-2.164.181c-3.192.274-5.64 1.211-8.301 3.177-3.041 2.246-5.628 6.387-6.322 10.119l-.327 1.759-1.462.375c-6.834 1.752-11.727 6.858-12.787 13.343-.476 2.912-.407 3.014 2.036 3.014h2.026l.204-1.482c.313-2.279 1.945-5.247 3.834-6.973 5.032-4.599 12.586-4.346 17.141.574 1.736 1.875 2.661 3.622 3.218 6.078l.376 1.657 3.117.083 3.116.083v14.736 30.649H30.675 20.442l.087 1.971.086 1.971h12.409 12.409l.075-36.841.075-20.927 1.092-.86c.601-.473 1.367-.945 1.702-1.049l.609-.19.193 21.246.194 29.934v8.687h2.044 2.044l.265-66.511c0-3.541-3.753-10.407-10.704-13.643-1.428-.571-1.48-.812-.673-3.156 1.112-3.233 3.43-5.763 6.697-7.309 1.59-.727 2.059-1.02 5.721-1.02s4.13.293 5.72 1.02c3.266 1.545 5.584 4.075 6.697 7.309.806 2.344.755 2.584-.673 3.156-6.951 3.236-10.705 10.103-10.705 13.643l.265 66.511h2.044 2.044v-8.687l.194-29.934.193-21.246.609.19c.335.104 1.101.576 1.702 1.049l1.092.86.075 20.927.074 36.841h12.41H88.92l.086-1.971.086-1.971H78.859 68.627V68.334 53.598l3.116-.083 3.117-.083.376-1.657c.557-2.456 1.482-4.203 3.217-6.078 4.555-4.919 12.109-5.172 17.141-.574 1.888 1.726 3.521 4.695 3.834 6.973l.204 1.482h2.026c2.442 0 2.511-.103 2.035-3.014-1.059-6.485-5.952-11.591-12.786-13.343l-1.462-.375-.327-1.759c-.694-3.732-3.281-7.873-6.322-10.119-2.661-1.966-5.109-2.903-8.301-3.177l-2.164-.181-.494-2.108c-1.004-4.28-3.449-7.871-6.944-10.201-2.679-1.784-6.935-2.708-10.126-2.761zM36.712 26.512c1.883-.017 3.79.425 5.64 1.327 3.244 1.582 6.327 5.678 6.514 8.654.069 1.093.032 1.138-1.407 1.732-3.616 1.493-6.577 4.215-8.317 7.642-.525 1.034-.996 1.837-1.047 1.786s-.524-.901-1.05-1.889c-2.257-4.237-6.091-7.214-10.985-8.528-1.26-.338-1.268-.349-1.071-1.397.547-2.915 3.208-6.292 6.228-7.901 1.753-.934 3.612-1.41 5.495-1.427zm36.109 0c1.883.017 3.742.493 5.495 1.427 3.019 1.609 5.681 4.986 6.228 7.901.197 1.048.189 1.059-1.071 1.397-4.894 1.314-8.729 4.291-10.985 8.528-.526.987-.998 1.837-1.05 1.889s-.523-.752-1.048-1.786c-1.74-3.427-4.701-6.149-8.317-7.642-1.438-.594-1.475-.639-1.406-1.732.187-2.976 3.27-7.073 6.514-8.654 1.85-.902 3.757-1.344 5.64-1.327z"/><g opacity=".995"><path d="M24.356 108.028q0-.547-.29-.781-.286-.233-.804-.233h-1.366v2.066h1.366q.519 0 .804-.252.29-.252.29-.8zm1.452-.01q0 1.242-.628 1.756-.628.514-1.794.514h-1.49v2.523h-1.457v-7.016h3.056q1.057 0 1.685.543.628.543.628 1.68zm6.288-.98h-3.713v1.49h3.408v1.219h-3.408v1.804h3.884v1.261H26.95v-7.016h5.145zm1.29-1.242h1.537l2.794 4.898v-4.898h1.366v7.016h-1.466l-2.865-4.984v4.984h-1.366zm2.904-.014zm8.876 2.203q-.167-.719-.814-1.004-.362-.157-.804-.157-.847 0-1.395.643-.543.638-.543 1.923 0 1.295.59 1.833.59.538 1.342.538.738 0 1.209-.424.471-.428.581-1.119H43.71v-1.171h2.923v3.765h-.971l-.148-.876q-.424.5-.762.704-.581.357-1.428.357-1.395 0-2.285-.966-.928-.971-.928-2.656 0-1.704.938-2.732.938-1.028 2.48-1.028 1.338 0 2.147.681.814.676.933 1.69zm-1.642-2.37z"/><use xlink:href="#B"/><path d="M58.18 105.796h1.661l-2.347 4.379v2.637h-1.466v-2.637l-2.428-4.379h1.728l1.457 3.056zm-1.457 0zm7.059 5.968q.871 0 1.38-.643.514-.643.514-1.828 0-1.18-.514-1.823-.509-.647-1.38-.647-.871 0-1.39.643-.519.643-.519 1.828 0 1.185.519 1.828.519.643 1.39.643zm3.36-2.47q0 1.89-1.061 2.894-.795.819-2.299.819-1.504 0-2.299-.819-1.066-1.004-1.066-2.894 0-1.928 1.066-2.894.795-.819 2.299-.819 1.504 0 2.299.819 1.061.966 1.061 2.894zm-3.36-3.713zm9.13.215h2.109v7.016h-1.366v-4.746q0-.205.005-.571.005-.371.005-.571l-1.328 5.888h-1.423l-1.318-5.888q0 .2.005.571.005.367.005.571v4.746H68.24v-7.016h2.132l1.276 5.517z"/><use xlink:href="#B" x="28.35"/><path d="M83.398 105.796h1.537l2.794 4.898v-4.898h1.366v7.016h-1.466l-2.865-4.984v4.984h-1.366zm2.904-.014z"/></g></g><defs ><path id="B" d="M49.95 110.16h1.78l-.876-2.761zm.09-4.365h1.656l2.485 7.016h-1.59l-.452-1.442h-2.585l-.486 1.442h-1.533zm.819 0z"/></defs></svg>